<svg xmlns="http://www.w3.org/2000/svg" width="1200" height="800" viewBox="-40.44888 -18.1289 350.55696 108.7734"><path d="M28.6875 0C12.9094 0 0 12.9094 0 28.6875S12.9094 57.375 28.6875 57.375 57.375 44.5453 57.375 28.6875 44.5454 0 28.6875 0zm0 47.0954c-9.8016 0-17.6907-8.0484-17.6907-18.4078s7.8891-18.4078 17.6907-18.4078 17.6907 8.0485 17.6907 18.4078c0 10.3593-7.8891 18.4078-17.6907 18.4078zm57.6932-31.1579c-5.1797 0-10.2 2.0719-12.8297 5.5781v-4.7813H63.1916v55.7813H73.551v-20.161c2.6297 3.2672 7.4906 5.0203 12.8297 5.0203 11.156 0 19.9216-8.7656 19.9216-20.7188 0-11.9532-8.7656-20.7188-19.9216-20.7188zm-1.7531 32.4329c-5.8969 0-11.1563-4.6219-11.1563-11.7141s5.2594-11.7141 11.1563-11.7141 11.156 4.6219 11.156 11.7141-5.2591 11.7141-11.156 11.7141zm46.061-32.4329c-11.3156 0-20.2407 8.8453-20.2407 20.7188 0 11.8735 7.8094 20.7188 20.5594 20.7188 10.4391 0 17.1328-6.2953 19.2047-13.3875h-10.1203c-1.275 2.9484-4.8609 5.0203-9.1641 5.0203-5.3391 0-9.4031-3.7453-10.3594-9.0844h30.1219v-4.0641c0-10.8375-7.5703-19.9219-20.0016-19.9219zM120.648 32.5922c1.1156-5.0203 5.2594-8.2875 10.2797-8.2875 5.3391 0 9.4031 3.5063 9.8813 8.2875zm57.6132-16.6547c-4.6219 0-9.4828 2.0719-11.7141 5.4984v-4.7016h-10.3594v39.8438h10.3594v-21.436c0-6.2156 3.3469-10.2797 8.7656-10.2797 5.0203 0 7.7297 3.825 7.7297 9.1641v22.5516h10.3594v-24.225c0-9.8813-6.0563-16.4157-15.1406-16.4157zM219.9341.7983l-22.5516 55.7813h11.0766l4.7812-12.1922h25.6594l4.7812 12.1922h11.236L232.5247.7983H219.934zm-3.1078 34.3454l9.2438-23.3485 9.1641 23.3485h-18.4078zM269.6592.7983h-10.5188v55.7813h10.5188z"/></svg>